<svg xmlns="http://www.w3.org/2000/svg" viewBox="0 0 64 64">
  <!-- Floor -->
  <rect x="0" y="0" width="64" height="64" fill="#E0E0E0"/>
  
  <!-- Tile pattern -->
  <pattern id="floorPattern" patternUnits="userSpaceOnUse" width="8" height="8">
    <rect width="8" height="8" fill="#E0E0E0"/>
    <rect width="4" height="4" fill="#FFFFFF"/>
    <rect x="4" y="4" width="4" height="4" fill="#FFFFFF"/>
  </pattern>
  <rect x="0" y="0" width="64" height="64" fill="url(#floorPattern)"/>
  
  <!-- Wall sections -->
  <rect x="0" y="0" width="64" height="8" fill="#FFFFFF"/> <!-- Top wall -->
  <rect x="0" y="0" width="8" height="64" fill="#FFFFFF"/> <!-- Left wall -->
  <rect x="56" y="0" width="8" height="64" fill="#FFFFFF"/> <!-- Right wall -->
  
  <!-- Door -->
  <rect x="24" y="0" width="16" height="2" fill="#A9A9A9"/>
  
  <!-- Windows -->
  <rect x="4" y="2" width="12" height="4" fill="#F0F8FF"/>
  <rect x="48" y="2" width="12" height="4" fill="#F0F8FF"/>
  
  <!-- Counter -->
  <rect x="0" y="48" width="64" height="4" fill="#A9A9A9"/>
  <rect x="0" y="52" width="64" height="12" fill="#D3D3D3"/>
  
  <!-- Stove -->
  <rect x="8" y="36" width="16" height="12" fill="#808080"/>
  <circle cx="12" cy="40" r="2" fill="#000000"/> <!-- Burner -->
  <circle cx="20" cy="40" r="2" fill="#000000"/> <!-- Burner -->
  <circle cx="12" cy="44" r="2" fill="#000000"/> <!-- Burner -->
  <circle cx="20" cy="44" r="2" fill="#000000"/> <!-- Burner -->
  
  <!-- Sink -->
  <rect x="32" y="36" width="12" height="12" fill="#C0C0C0"/>
  <rect x="34" y="38" width="8" height="8" fill="#FFFFFF"/>
  
  <!-- Refrigerator -->
  <rect x="48" y="16" width="8" height="32" fill="#F5F5F5"/>
  <rect x="49" y="18" width="6" height="1" fill="#D3D3D3"/>
  <rect x="49" y="45" width="2" height="2" fill="#A9A9A9"/> <!-- Handle -->
</svg>
