<svg xmlns="http://www.w3.org/2000/svg" viewBox="0 0 64 64">
  <!-- Floor -->
  <rect x="0" y="56" width="64" height="8" fill="#A0522D"/>
  
  <!-- Back wall -->
  <rect x="0" y="0" width="64" height="56" fill="#D2B48C"/>
  
  <!-- Shelves -->
  <rect x="4" y="8" width="56" height="4" fill="#8B4513"/>
  <rect x="4" y="24" width="56" height="4" fill="#8B4513"/>
  <rect x="4" y="40" width="56" height="4" fill="#8B4513"/>
  
  <!-- Items on shelves -->
  <!-- Top shelf -->
  <rect x="8" y="4" width="8" height="4" fill="#FF6347"/> <!-- Tomato sauce -->
  <rect x="20" y="4" width="8" height="4" fill="#FFFF00"/> <!-- Pasta -->
  <rect x="32" y="4" width="8" height="4" fill="#FFA500"/> <!-- Spices -->
  <rect x="44" y="4" width="8" height="4" fill="#A52A2A"/> <!-- Canned goods -->
  
  <!-- Middle shelf -->
  <rect x="12" y="20" width="12" height="4" fill="#F4A460"/> <!-- Boxes -->
  <rect x="28" y="20" width="12" height="4" fill="#F4A460"/> <!-- More boxes -->
  <rect x="44" y="18" width="8" height="6" fill="#C0C0C0"/> <!-- Appliance -->
  
  <!-- Bottom shelf -->
  <rect x="8" y="36" width="16" height="4" fill="#008000"/> <!-- Vegetables -->
  <rect x="28" y="36" width="12" height="4" fill="#FF0000"/> <!-- Meat -->
  <rect x="44" y="36" width="10" height="4" fill="#FFFF00"/> <!-- Cheese -->
  
  <!-- Refrigerator -->
  <rect x="52" y="44" width="10" height="20" fill="#C0C0C0"/>
  <rect x="53" y="46" width="8" height="1" fill="#FFFFFF"/>
  <rect x="54" y="60" width="2" height="3" fill="#333333"/>
</svg>
